<svg width="16" height="16" viewBox="0 0 16 16" fill="none" xmlns="http://www.w3.org/2000/svg">
<path d="M9.15615 7.999L15.0155 1.01462C15.1137 0.898553 15.0312 0.722214 14.8794 0.722214H13.0981C12.9932 0.722214 12.8928 0.769089 12.8236 0.849446L7.99097 6.61061L3.15838 0.849446C3.09142 0.769089 2.99097 0.722214 2.88383 0.722214H1.10258C0.950793 0.722214 0.868203 0.898553 0.966418 1.01462L6.82579 7.999L0.966418 14.9834C0.944417 15.0092 0.930302 15.0409 0.92575 15.0745C0.921197 15.1082 0.926397 15.1425 0.940733 15.1732C0.955069 15.204 0.977939 15.2301 1.00663 15.2482C1.03532 15.2664 1.06862 15.276 1.10258 15.2758H2.88383C2.98874 15.2758 3.08919 15.2289 3.15838 15.1486L7.99097 9.38739L12.8236 15.1486C12.8905 15.2289 12.991 15.2758 13.0981 15.2758H14.8794C15.0312 15.2758 15.1137 15.0994 15.0155 14.9834L9.15615 7.999Z" fill="#686974"/>
</svg>
